<?xml version="1.0" standalone="no"?>
<!DOCTYPE svg PUBLIC "-//W3C//DTD SVG 20010904//EN"
 "http://www.w3.org/TR/2001/REC-SVG-20010904/DTD/svg10.dtd">
<svg version="1.0" xmlns="http://www.w3.org/2000/svg"
 width="177.000000pt" height="177.000000pt" viewBox="0 0 177.000000 177.000000"
 preserveAspectRatio="xMidYMid meet">
<metadata>
Created by potrace 1.11, written by Peter Selinger 2001-2013
</metadata>
<g transform="translate(0.000000,177.000000) scale(0.100000,-0.100000)"
fill="#000000" stroke="none">
<path d="M315 1196 c-5 -3 -22 -7 -37 -10 -48 -11 -96 -63 -114 -122 -11 -39
-20 -53 -32 -52 -71 6 -85 -24 -23 -49 l38 -15 6 -69 c7 -82 33 -134 84 -169
35 -24 43 -25 229 -28 175 -3 196 -1 231 16 21 11 46 28 55 39 24 27 48 87 48
123 l0 30 70 0 70 0 0 -35 c0 -63 40 -124 102 -156 32 -17 60 -19 217 -19 191
0 219 5 265 48 40 38 56 81 56 152 l0 61 45 19 c51 22 61 49 18 51 -16 1 -35
2 -43 3 -8 0 -17 15 -20 31 -10 46 -37 91 -68 114 -49 35 -111 43 -279 40
-151 -4 -160 -5 -205 -31 -56 -33 -88 -92 -88 -161 l0 -47 -69 0 -68 0 -6 61
c-4 48 -12 69 -35 98 -56 70 -77 76 -267 78 -93 1 -174 1 -180 -1z m396 -84
l29 -32 0 -136 c0 -143 -10 -182 -49 -204 -12 -6 -101 -10 -219 -10 l-199 0
-25 25 c-32 32 -38 62 -38 192 0 195 12 204 283 201 l189 -3 29 -33z m754 24
c18 -8 38 -23 44 -34 16 -29 14 -312 -2 -333 -27 -35 -54 -39 -252 -39 l-197
0 -29 29 -29 29 0 142 c0 218 0 217 263 219 124 1 176 -3 202 -13z"/>
</g>
</svg>
